<svg xmlns="http://www.w3.org/2000/svg" viewBox="0 0 32 32" fill="none">
  <!-- Document shape -->
  <path d="M6 3h12l6 6v19a2 2 0 0 1-2 2H8a2 2 0 0 1-2-2V5a2 2 0 0 1 2-2z" fill="#0074ff" opacity="0.15"/>
  <path d="M6 3h12l6 6v19a2 2 0 0 1-2 2H8a2 2 0 0 1-2-2V5a2 2 0 0 1 2-2z" stroke="#0074ff" stroke-width="2" fill="none"/>
  <!-- Folded corner -->
  <path d="M18 3v5a1 1 0 0 0 1 1h5" stroke="#0074ff" stroke-width="2" fill="none"/>
  <!-- Checkmark -->
  <path d="M10 17l3 3 6-6" stroke="#0074ff" stroke-width="2.5" stroke-linecap="round" stroke-linejoin="round" fill="none"/>
</svg>
