<svg xmlns="http://www.w3.org/2000/svg" viewBox="0 0 40 40" fill="none">
  <!-- Document shape -->
  <path d="M8 4h16l8 8v24a2 2 0 0 1-2 2H10a2 2 0 0 1-2-2V6a2 2 0 0 1 2-2z" fill="currentColor" opacity="0.15"/>
  <path d="M8 4h16l8 8v24a2 2 0 0 1-2 2H10a2 2 0 0 1-2-2V6a2 2 0 0 1 2-2z" stroke="currentColor" stroke-width="2" fill="none"/>
  <!-- Folded corner -->
  <path d="M24 4v6a2 2 0 0 0 2 2h6" stroke="currentColor" stroke-width="2" fill="none"/>
  <!-- Checkmark -->
  <path d="M14 22l4 4 8-8" stroke="currentColor" stroke-width="2.5" stroke-linecap="round" stroke-linejoin="round" fill="none"/>
</svg>
